<svg width="34" height="32" viewBox="0 0 34 32" fill="none" xmlns="http://www.w3.org/2000/svg">
<rect x="0.5" y="4.5" width="33" height="23" rx="3.5" fill="white"/>
<rect x="0.5" y="4.5" width="33" height="23" rx="3.5" stroke="#F2F4F7"/>
<path fillRule="evenodd" clipRule="evenodd" d="M10.7503 19.8582H8.69056L7.146 13.7924C7.07269 13.5133 6.91703 13.2666 6.68806 13.1504C6.11664 12.8582 5.48696 12.6257 4.80005 12.5084V12.2749H8.11813C8.57607 12.2749 8.91953 12.6257 8.97677 13.0331L9.77817 17.4086L11.8369 12.2749H13.8394L10.7503 19.8582ZM14.9843 19.8582H13.039L14.6408 12.2749H16.5861L14.9843 19.8582ZM19.1028 14.3757C19.16 13.9673 19.5035 13.7337 19.9042 13.7337C20.5338 13.6751 21.2197 13.7924 21.7922 14.0835L22.1356 12.4508C21.5632 12.2172 20.9335 12.1 20.3621 12.1C18.4741 12.1 17.1003 13.1504 17.1003 14.6082C17.1003 15.7173 18.0734 16.2996 18.7603 16.6504C19.5035 17.0002 19.7897 17.2337 19.7324 17.5835C19.7324 18.1082 19.16 18.3418 18.5886 18.3418C17.9017 18.3418 17.2147 18.1669 16.5861 17.8747L16.2426 19.5084C16.9295 19.7996 17.6727 19.9169 18.3596 19.9169C20.4766 19.9745 21.7922 18.9251 21.7922 17.35C21.7922 15.3664 19.1028 15.2502 19.1028 14.3757ZM28.6 19.8582L27.0555 12.2749H25.3965C25.053 12.2749 24.7095 12.5084 24.5951 12.8582L21.7349 19.8582H23.7374L24.1371 18.7502H26.5976L26.8265 19.8582H28.6ZM25.6827 14.3171L26.2541 17.1751H24.6523L25.6827 14.3171Z" fill="#172B85"/>
</svg>
