<svg width="19" height="19" viewBox="0 0 19 19" fill="none" xmlns="http://www.w3.org/2000/svg">
<circle cx="9.5" cy="9.5" r="8.5" fill="#001081" stroke="#F3F5F8" stroke-width="2"/>
<path d="M11.3454 5.25001C11.1607 5.24931 10.9776 5.2852 10.8068 5.3556C10.636 5.42601 10.4808 5.52954 10.3503 5.66021L5.63927 10.3734L7.62656 12.3615L12.3398 7.64975C12.5362 7.45306 12.67 7.20256 12.7241 6.9299C12.7782 6.65723 12.7503 6.37465 12.6439 6.11784C12.5375 5.86103 12.3573 5.64152 12.1262 5.48706C11.8951 5.3326 11.6234 5.25011 11.3454 5.25001ZM5.3948 10.7926L5.25082 12.4957C5.24797 12.5297 5.25258 12.5639 5.26431 12.596C5.27604 12.628 5.29462 12.6571 5.31875 12.6813C5.34288 12.7054 5.37198 12.724 5.40402 12.7357C5.43607 12.7474 5.47028 12.752 5.50429 12.7492L7.2066 12.6044L5.3948 10.7926Z" fill="white"/>
</svg>
