<svg width="110" height="42" viewBox="0 0 110 42" fill="none" xmlns="http://www.w3.org/2000/svg">
<path d="M65.4844 25.6928C64.6017 27.828 63.1864 29.6966 61.3761 31.1171C59.5657 32.5375 57.4219 33.4615 55.153 33.7992C52.884 34.1369 50.567 33.8769 48.4271 33.0444C46.2872 32.2119 44.3972 30.8353 42.9406 29.0482C41.4628 29.5797 39.2966 30.3152 39.185 30.3534C39.5681 30.0163 39.9564 29.6857 40.3527 29.3663C41.2771 28.6188 42.2327 27.9219 43.2194 27.2755C47.648 24.3583 52.6684 22.4792 57.9117 21.7764L56.352 13.7743C52.5903 14.7312 48.9758 16.2022 45.6089 18.1464C43.6304 19.2777 41.7504 20.576 39.9892 22.0275C39.7351 19.7681 40.0546 17.4806 40.9177 15.38C41.7808 13.2794 43.1591 11.4345 44.9232 10.0188C46.6873 8.60309 48.7793 7.66299 51.0025 7.28677C53.2257 6.91055 55.5073 7.11059 57.6329 7.86811L61.617 1.84114C58.0199 0.190495 54.0238 -0.367094 50.1176 0.236562C46.2113 0.840218 42.564 2.57896 39.6218 5.24015C36.6796 7.90136 34.57 11.3697 33.5508 15.221C32.5317 19.0724 32.6473 23.1397 33.8835 26.9259C33.9728 27.2066 33.9915 27.5053 33.9378 27.7951C33.8842 28.0849 33.7599 28.3566 33.5762 28.5859C31.3328 31.4334 29.4638 34.5615 28.0156 37.8925L31.4779 39.822C32.7843 37.5301 34.3285 35.3849 36.0846 33.4225C36.1686 33.3261 36.2723 33.2494 36.3887 33.1975C36.505 33.1457 36.6312 33.12 36.7584 33.1223C36.8856 33.1246 37.0107 33.1548 37.1251 33.2109C37.2396 33.2669 37.3405 33.3474 37.4209 33.4468C39.545 36.0917 42.2886 38.1614 45.4041 39.4692C48.5195 40.777 51.9088 41.2818 55.2661 40.9378C58.6233 40.594 61.8427 39.4122 64.6339 37.4993C67.4251 35.5864 69.7002 33.0025 71.2537 29.9809L65.4844 25.6928Z" fill="white"/>
<path d="M81.9842 20.5212C81.9842 21.5846 81.6696 22.6242 81.08 23.5084C80.4905 24.3925 79.6526 25.0817 78.6722 25.4886C77.6919 25.8956 76.6131 26.002 75.5724 25.7946C74.5316 25.5871 73.5756 25.075 72.8253 24.3231C72.075 23.5712 71.564 22.6131 71.357 21.5702C71.15 20.5272 71.2562 19.4461 71.6623 18.4636C72.0684 17.4812 72.756 16.6415 73.6384 16.0507C74.5206 15.4599 75.5579 15.1445 76.6191 15.1445C78.042 15.1445 79.4066 15.711 80.4128 16.7193C81.4189 17.7276 81.9842 19.0952 81.9842 20.5212Z" fill="white"/>
</svg>
