<svg width="175" height="64" viewBox="0 0 175 64" fill="none" xmlns="http://www.w3.org/2000/svg">
<path d="M173.07 0H169.732V24.3826H173.07V0Z" fill="#FFFFFF"/>
<mask id="mask0_2448_76494" style="mask-type:luminance" maskUnits="userSpaceOnUse" x="0" y="0" width="175" height="64">
<path d="M174.261 0H0V63.754H174.261V0Z" fill="white"/>
</mask>
<g mask="url(#mask0_2448_76494)">
<path d="M171.261 30.5678C171.209 30.4607 171.181 30.3437 171.18 30.2248C171.176 30.1003 171.201 29.9768 171.252 29.8632C171.303 29.7496 171.379 29.6489 171.474 29.5684C171.567 29.5192 171.671 29.4916 171.777 29.4876C171.883 29.4837 171.988 29.5035 172.085 29.5455C172.502 29.7033 172.902 29.9045 173.277 30.1459L174.261 28.306C172.869 27.5604 171.429 26.7897 169.997 28.0636C169.669 28.3898 169.422 28.7883 169.276 29.2271C169.13 29.6659 169.088 30.1329 169.155 30.5907C169.163 30.6496 169.158 30.7096 169.142 30.7667C169.125 30.8238 169.096 30.8766 169.057 30.9217C169.018 30.9667 168.97 31.003 168.916 31.0279C168.862 31.0529 168.804 31.066 168.744 31.0664H168.551V33.1555H174.258V31.0686H172.288C172.087 31.0884 171.885 31.0525 171.703 30.965C171.522 30.8774 171.368 30.7416 171.259 30.5724" fill="#FFFFFF"/>
<path d="M113.039 7.09425V10.4321C114.445 10.4526 115.786 11.0254 116.773 12.0267C117.76 13.028 118.313 14.3773 118.313 15.783C118.313 17.1888 117.76 18.5381 116.773 19.5394C115.786 20.5406 114.445 21.1134 113.039 21.134H106.02V24.4718H113.039C115.344 24.4718 117.555 23.5562 119.185 21.9264C120.814 20.2967 121.73 18.0862 121.73 15.7813C121.73 13.4765 120.814 11.266 119.185 9.63621C117.555 8.00642 115.344 7.09082 113.039 7.09082" fill="#FFFFFF"/>
<path d="M157.749 7.08962H147.563V10.432H157.749C159.156 10.432 160.506 10.9912 161.502 11.9866C162.497 12.9819 163.056 14.3319 163.056 15.7395C163.056 17.1472 162.497 18.4972 161.502 19.4925C160.506 20.4878 159.156 21.047 157.749 21.047H128.402V0H125.064V22.7154C125.064 23.1582 125.24 23.5828 125.553 23.8959C125.867 24.209 126.291 24.3849 126.734 24.3849H157.748C160.023 24.3587 162.197 23.4363 163.797 21.8179C165.397 20.1994 166.294 18.0153 166.294 15.7395C166.294 13.4637 165.397 11.2797 163.797 9.66121C162.197 8.04274 160.023 7.12037 157.748 7.0942" fill="#FFFFFF"/>
<path d="M157.223 27.3794C156.809 27.3794 156.404 27.5022 156.059 27.7323C155.715 27.9623 155.447 28.2893 155.288 28.6719C155.13 29.0545 155.088 29.4754 155.169 29.8816C155.25 30.2877 155.449 30.6608 155.742 30.9536C156.035 31.2464 156.408 31.4458 156.814 31.5266C157.22 31.6074 157.641 31.5659 158.024 31.4075C158.406 31.249 158.733 30.9806 158.964 30.6363C159.194 30.292 159.316 29.8872 159.316 29.4731C159.316 29.1982 159.262 28.9259 159.157 28.6719C159.052 28.4179 158.898 28.1871 158.703 27.9926C158.509 27.7982 158.278 27.644 158.024 27.5388C157.77 27.4335 157.498 27.3794 157.223 27.3794Z" fill="#FFFFFF"/>
<path d="M94.4522 6.86084C92.7334 6.86084 91.0532 7.37053 89.624 8.32545C88.1949 9.28038 87.081 10.6377 86.4232 12.2256C85.7655 13.8136 85.5934 15.561 85.9287 17.2468C86.264 18.9326 87.0917 20.4811 88.3071 21.6965C89.5225 22.9118 91.071 23.7395 92.7568 24.0749C94.4426 24.4102 96.19 24.2381 97.7779 23.5803C99.3659 22.9226 100.723 21.8087 101.678 20.3795C102.633 18.9504 103.143 17.2702 103.143 15.5513C103.14 13.2472 102.224 11.0382 100.595 9.4089C98.9654 7.77964 96.7563 6.86326 94.4522 6.86084ZM94.4522 20.9017C93.3938 20.9017 92.3591 20.5879 91.4791 19.9998C90.599 19.4118 89.9131 18.576 89.508 17.5981C89.103 16.6203 88.997 15.5443 89.2035 14.5062C89.41 13.4681 89.9197 12.5145 90.6681 11.7661C91.4165 11.0177 92.3701 10.508 93.4082 10.3015C94.4463 10.095 95.5223 10.201 96.5001 10.606C97.478 11.0111 98.3138 11.697 98.9019 12.5771C99.4899 13.4571 99.8038 14.4918 99.8038 15.5502C99.8022 16.969 99.2379 18.3293 98.2346 19.3326C97.2314 20.3359 95.8711 20.9002 94.4522 20.9017Z" fill="#FFFFFF"/>
<path d="M96.705 4.18623C97.1191 4.18623 97.5239 4.06344 97.8683 3.83338C98.2126 3.60331 98.4809 3.27632 98.6394 2.89374C98.7979 2.51116 98.8393 2.09018 98.7585 1.68404C98.6777 1.2779 98.4783 0.904831 98.1855 0.612018C97.8927 0.319206 97.5197 0.119797 97.1135 0.0390106C96.7074 -0.0417763 96.2864 -0.000313531 95.9038 0.158156C95.5212 0.316625 95.1942 0.584983 94.9642 0.929294C94.7341 1.27361 94.6113 1.67841 94.6113 2.09251C94.6113 2.36746 94.6655 2.63972 94.7707 2.89374C94.8759 3.14776 95.0301 3.37857 95.2246 3.57299C95.419 3.76741 95.6498 3.92164 95.9038 4.02686C96.1578 4.13208 96.4301 4.18623 96.705 4.18623Z" fill="#FFFFFF"/>
<path d="M91.2809 4.18623C91.6951 4.18668 92.1002 4.06424 92.4448 3.83441C92.7895 3.60457 93.0582 3.27767 93.217 2.89506C93.3757 2.51246 93.4175 2.09135 93.3369 1.68502C93.2562 1.2787 93.0569 0.905419 92.7641 0.612423C92.4712 0.319427 92.0981 0.119882 91.6918 0.0390386C91.2855 -0.0418046 90.8644 -0.000312407 90.4817 0.158265C90.099 0.316842 89.7719 0.585377 89.5419 0.929888C89.3119 1.2744 89.1892 1.6794 89.1895 2.09365C89.1895 2.64894 89.41 3.18149 89.8027 3.57414C90.1953 3.96679 90.7279 4.18737 91.2832 4.18737" fill="#FFFFFF"/>
<path d="M103.613 63.7525V60.4147C104.677 60.4135 105.698 59.9902 106.45 59.2378C107.202 58.4854 107.626 57.4652 107.627 56.4011V40.2424H110.965V56.4011C110.963 58.3502 110.187 60.2188 108.809 61.597C107.431 62.9752 105.562 63.7504 103.613 63.7525Z" fill="#FFFFFF"/>
<path d="M111.389 35.2436C111.389 35.6577 111.266 36.0625 111.036 36.4068C110.806 36.7512 110.479 37.0195 110.096 37.178C109.714 37.3365 109.293 37.3779 108.886 37.2971C108.48 37.2163 108.107 37.0169 107.814 36.7241C107.522 36.4313 107.322 36.0582 107.241 35.6521C107.161 35.246 107.202 34.825 107.361 34.4424C107.519 34.0598 107.787 33.7328 108.132 33.5028C108.476 33.2727 108.881 33.1499 109.295 33.1499C109.85 33.1499 110.383 33.3705 110.775 33.7631C111.168 34.1558 111.389 34.6883 111.389 35.2436Z" fill="#FFFFFF"/>
<path d="M149.039 33.1499V42.0988C147.391 40.7982 145.326 40.1422 143.23 40.2533C140.977 40.3846 138.863 41.3873 137.336 43.0492C135.809 44.711 134.989 46.9017 135.048 49.1578C135.107 51.4139 136.042 53.5584 137.654 55.1376C139.267 56.7168 141.43 57.6068 143.687 57.6194C145.357 57.6203 146.992 57.1356 148.391 56.2243C148.454 56.183 148.526 56.1592 148.601 56.1556C148.676 56.152 148.75 56.1686 148.816 56.2037C148.883 56.2389 148.938 56.2912 148.977 56.3552C149.016 56.4192 149.037 56.4925 149.037 56.5674V57.5279H152.379V33.1499H149.039ZM143.687 54.2827C142.629 54.2827 141.594 53.9688 140.714 53.3808C139.834 52.7928 139.148 51.957 138.743 50.9791C138.338 50.0013 138.232 48.9252 138.438 47.8872C138.645 46.8491 139.155 45.8955 139.903 45.1471C140.651 44.3987 141.605 43.889 142.643 43.6825C143.681 43.476 144.757 43.582 145.735 43.987C146.713 44.3921 147.549 45.078 148.137 45.958C148.725 46.8381 149.039 47.8728 149.039 48.9312C149.037 50.35 148.473 51.7103 147.469 52.7136C146.466 53.7169 145.106 54.2812 143.687 54.2827Z" fill="#FFFFFF"/>
<path d="M173.072 48.4975C172.978 46.5845 172.256 44.7559 171.017 43.2954C169.778 41.8349 168.091 40.8242 166.219 40.4203C164.347 40.0163 162.394 40.2416 160.663 41.0613C158.932 41.8809 157.52 43.2491 156.646 44.9533C155.772 46.6576 155.485 48.6027 155.829 50.4867C156.174 52.3708 157.131 54.0884 158.551 55.373C159.972 56.6576 161.777 57.4373 163.686 57.5912C165.595 57.7451 167.502 57.2645 169.11 56.2241C169.172 56.1827 169.245 56.159 169.319 56.1553C169.394 56.1517 169.469 56.1683 169.535 56.2034C169.601 56.2386 169.656 56.2909 169.695 56.3549C169.734 56.4189 169.755 56.4922 169.756 56.5671V57.5276H173.072V48.4975ZM164.404 54.2813C163.346 54.2813 162.311 53.9674 161.431 53.3794C160.551 52.7913 159.865 51.9555 159.46 50.9777C159.055 49.9998 158.949 48.9238 159.156 47.8857C159.362 46.8476 159.872 45.8941 160.62 45.1456C161.369 44.3972 162.322 43.8875 163.36 43.6811C164.398 43.4746 165.474 43.5805 166.452 43.9856C167.43 44.3906 168.266 45.0766 168.854 45.9566C169.442 46.8367 169.756 47.8713 169.756 48.9297C169.754 50.3486 169.19 51.7089 168.187 52.7122C167.183 53.7155 165.823 54.2798 164.404 54.2813Z" fill="#FFFFFF"/>
<path d="M131.66 48.4975C131.567 46.5842 130.844 44.7552 129.605 43.2944C128.366 41.8336 126.679 40.8227 124.807 40.4186C122.934 40.0146 120.981 40.2399 119.25 41.0596C117.518 41.8794 116.106 43.2477 115.232 44.9523C114.358 46.6568 114.071 48.6022 114.415 50.4866C114.76 52.3709 115.717 54.0887 117.138 55.3735C118.559 56.6583 120.364 57.438 122.274 57.5918C124.183 57.7456 126.09 57.2649 127.698 56.2241C127.76 56.1827 127.833 56.159 127.908 56.1554C127.982 56.1517 128.057 56.1684 128.123 56.2035C128.189 56.2386 128.245 56.2909 128.283 56.3549C128.322 56.4189 128.343 56.4923 128.344 56.5671V57.5277H131.66V48.4975ZM122.992 54.2813C121.934 54.2813 120.899 53.9675 120.019 53.3794C119.139 52.7914 118.453 51.9556 118.048 50.9777C117.643 49.9999 117.537 48.9239 117.744 47.8858C117.95 46.8477 118.46 45.8941 119.208 45.1457C119.957 44.3973 120.91 43.8876 121.948 43.6811C122.987 43.4746 124.063 43.5806 125.04 43.9856C126.018 44.3907 126.854 45.0766 127.442 45.9566C128.03 46.8367 128.344 47.8714 128.344 48.9298C128.342 50.3486 127.778 51.7089 126.775 52.7122C125.772 53.7155 124.411 54.2798 122.992 54.2813Z" fill="#FFFFFF"/>
<path d="M93.9971 57.6179C93.6915 57.6175 93.3862 57.6015 93.0823 57.5699C90.8769 57.3263 88.8482 56.2485 87.412 54.5572C85.9758 52.866 85.2408 50.6894 85.3578 48.4737C85.4748 46.258 86.4348 44.171 88.0411 42.6403C89.6474 41.1097 91.7783 40.2514 93.9971 40.2415C98.4075 40.2415 102.624 43.5793 102.624 49.7759H88.7039C88.8708 50.8117 89.3382 51.7756 90.0481 52.5481C90.7581 53.3206 91.6792 53.8676 92.6973 54.1212C93.7154 54.3747 94.7855 54.3237 95.7748 53.9745C96.7641 53.6252 97.6291 52.9931 98.2623 52.1566L100.923 54.1726C100.116 55.2452 99.0696 56.1149 97.8676 56.7128C96.6655 57.3106 95.3407 57.6201 93.9982 57.6167M89.2516 46.4369H98.73C98.2735 45.576 97.5912 44.8556 96.7562 44.3533C95.9212 43.8509 94.9652 43.5855 93.9908 43.5855C93.0164 43.5855 92.0603 43.8509 91.2254 44.3533C90.3904 44.8556 89.7081 45.576 89.2516 46.4369Z" fill="#FFFFFF"/>
<path d="M58.7055 39.9076C57.3224 43.2243 55.105 46.1268 52.2686 48.3332C49.4323 50.5396 46.0734 51.9748 42.5184 52.4993C38.9634 53.0239 35.3332 52.62 31.9804 51.3269C28.6277 50.0338 25.6664 47.8955 23.3843 45.1197C21.0688 45.9453 17.6749 47.0876 17.4999 47.1471C18.1003 46.6233 18.7086 46.1099 19.3295 45.6136C20.7779 44.4526 22.2751 43.3701 23.8211 42.3661C30.7597 37.8347 38.6257 34.9159 46.8407 33.8243L44.397 21.3946C38.5032 22.8809 32.84 25.1658 27.5649 28.1857C24.465 29.943 21.5195 31.9597 18.7601 34.2142C18.3619 30.7047 18.8625 27.1516 20.2148 23.8887C21.5671 20.6257 23.7266 17.7601 26.4906 15.5611C29.2545 13.3621 32.5322 11.9017 36.0155 11.3174C39.4989 10.733 43.0736 11.0437 46.4039 12.2204L52.6462 2.85864C47.0102 0.294677 40.7493 -0.57143 34.629 0.366234C28.5087 1.3039 22.7942 4.00469 18.1844 8.13836C13.5746 12.272 10.2692 17.6594 8.67249 23.6417C7.07575 29.624 7.25685 35.942 9.19364 41.823C9.33357 42.259 9.36283 42.723 9.2788 43.1731C9.19476 43.6232 9.00006 44.0454 8.71223 44.4015C5.1973 48.8246 2.26895 53.6835 0 58.8575L5.42471 61.8546C7.47145 58.2947 9.89095 54.9625 12.6424 51.9143C12.7739 51.7645 12.9365 51.6453 13.1188 51.5647C13.3011 51.4842 13.4987 51.4443 13.698 51.4479C13.8973 51.4515 14.0934 51.4985 14.2726 51.5855C14.4519 51.6726 14.6101 51.7976 14.7361 51.952C18.0641 56.0603 22.3627 59.2752 27.244 61.3067C32.1252 63.3381 37.4355 64.1221 42.6956 63.5879C47.9556 63.0537 52.9999 61.2181 57.373 58.2468C61.7462 55.2755 65.3107 51.2619 67.7448 46.5685L58.7055 39.9076Z" fill="#FFFFFF"/>
<path d="M69.3646 26.6308C69.3646 28.2671 68.8794 29.8666 67.9704 31.2271C67.0613 32.5876 65.7692 33.648 64.2575 34.2742C62.7458 34.9003 61.0823 35.0642 59.4775 34.745C57.8727 34.4257 56.3985 33.6378 55.2415 32.4808C54.0845 31.3238 53.2965 29.8496 52.9773 28.2448C52.6581 26.64 52.8219 24.9765 53.4481 23.4648C54.0743 21.9531 55.1347 20.661 56.4952 19.7519C57.8557 18.8429 59.4552 18.3577 61.0915 18.3577C63.2857 18.3577 65.39 19.2293 66.9415 20.7808C68.493 22.3323 69.3646 24.4366 69.3646 26.6308Z" fill="#FFFFFF"/>
</g>
</svg>
