<svg width="320" height="320" viewBox="0 0 320 320" fill="none" xmlns="http://www.w3.org/2000/svg">
<rect width="320" height="320" rx="160" fill="#F4F6FF"/>
<path d="M192.305 171.433C187.834 182.125 177.238 189.675 164.925 189.675C155.723 189.675 147.46 185.463 142.049 178.853C138.744 180.019 133.916 181.639 133.657 181.737C134.499 180.991 135.374 180.246 136.249 179.566C138.323 177.913 140.461 176.39 142.632 174.932C152.612 168.419 163.921 164.272 175.391 162.781L171.956 145.09C163.532 147.228 155.431 150.501 148.011 154.746C143.604 157.241 139.425 160.124 135.472 163.332C135.342 162.23 135.277 161.129 135.277 159.995C135.277 143.632 148.594 130.347 164.958 130.347C168.425 130.347 171.73 130.962 174.84 132.032L183.718 118.714C176.817 115.571 168.975 114.081 160.745 114.826C139.684 116.77 122.543 133.328 119.951 154.292C119.076 161.291 119.854 167.998 121.863 174.122C122.284 175.386 121.992 176.747 121.182 177.784C116.192 184.102 111.98 191.036 108.804 198.359L116.516 202.636C119.432 197.549 122.899 192.786 126.788 188.476C127.598 187.569 129.023 187.601 129.769 188.541C138.096 198.78 150.765 205.325 164.958 205.325C182.422 205.325 197.619 195.378 205.201 180.862L192.305 171.433Z" fill="#C2C4E8"/>
<path d="M200.205 163.377C206.207 160.891 209.057 154.011 206.571 148.009C204.085 142.007 197.204 139.157 191.202 141.644C185.201 144.13 182.351 151.01 184.837 157.012C187.323 163.013 194.203 165.863 200.205 163.377Z" fill="#C2C4E8"/>
</svg>
