<svg width="102" height="36" viewBox="0 0 102 36" fill="none" xmlns="http://www.w3.org/2000/svg">
<path d="M100.809 0H98.875V13.7681H100.809V0Z" fill="white"/>
<mask id="mask0_4064_45475" style="mask-type:luminance" maskUnits="userSpaceOnUse" x="0" y="0" width="102" height="36">
<path d="M101.5 0H0.5V36H101.5V0Z" fill="white"/>
</mask>
<g mask="url(#mask0_4064_45475)">
<path d="M99.7592 17.2601C99.7291 17.1997 99.7133 17.1336 99.712 17.0664C99.7104 16.9962 99.7246 16.9264 99.7539 16.8623C99.7836 16.7981 99.8275 16.7412 99.8823 16.6958C99.9368 16.668 99.9969 16.6524 100.058 16.6502C100.12 16.648 100.181 16.6591 100.237 16.6829C100.479 16.7719 100.71 16.8856 100.928 17.0219L101.498 15.9829C100.691 15.5619 99.8567 15.1267 99.0269 15.846C98.8367 16.0303 98.6936 16.2553 98.6087 16.5031C98.5238 16.7508 98.4998 17.0146 98.5384 17.273C98.5433 17.3063 98.5404 17.3402 98.5307 17.3724C98.5213 17.4047 98.5042 17.4345 98.4819 17.46C98.4595 17.4854 98.4315 17.5058 98.4002 17.5199C98.3689 17.534 98.3348 17.5414 98.3002 17.5416H98.1885V18.7213H101.496V17.5429H100.354C100.238 17.5541 100.121 17.5338 100.016 17.4844C99.9104 17.4349 99.8214 17.3583 99.758 17.2627" fill="white"/>
<path d="M66.0161 4.00586V5.89064C66.8305 5.90222 67.6079 6.22568 68.1797 6.79108C68.7519 7.35644 69.0725 8.11834 69.0725 8.91216C69.0725 9.70593 68.7519 10.4679 68.1797 11.0332C67.6079 11.5986 66.8305 11.9221 66.0161 11.9337H61.9473V13.8185H66.0161C67.3519 13.8185 68.6332 13.3014 69.5777 12.3811C70.5221 11.4609 71.0529 10.2127 71.0529 8.9112C71.0529 7.60968 70.5221 6.36151 69.5777 5.44122C68.6332 4.52093 67.3519 4.00391 66.0161 4.00391" fill="white"/>
<path d="M91.9308 4.00332H86.0268V5.89065H91.9308C92.7465 5.89065 93.5292 6.20643 94.1058 6.76845C94.6829 7.33051 95.0068 8.09281 95.0068 8.88765C95.0068 9.6825 94.6829 10.4448 94.1058 11.0068C93.5292 11.5689 92.7465 11.8846 91.9308 11.8846H74.9217V0H72.9873V12.8267C72.9873 13.0767 73.0893 13.3165 73.2706 13.4933C73.4522 13.6701 73.6981 13.7694 73.9549 13.7694H91.93C93.2492 13.7546 94.509 13.2338 95.4359 12.3199C96.3633 11.406 96.8835 10.1727 96.8835 8.88765C96.8835 7.60256 96.3633 6.36931 95.4359 5.45539C94.509 4.5415 93.2492 4.02066 91.93 4.00586" fill="white"/>
<path d="M91.6257 15.4609C91.3855 15.4609 91.151 15.5303 90.9515 15.6602C90.752 15.7901 90.5963 15.9747 90.5045 16.1908C90.4126 16.4068 90.3886 16.6445 90.4354 16.8739C90.4821 17.1032 90.5979 17.3139 90.7674 17.4792C90.9373 17.6446 91.1535 17.7572 91.3888 17.8027C91.6241 17.8484 91.8683 17.8249 92.0898 17.7355C92.3117 17.646 92.5011 17.4945 92.6348 17.3C92.7681 17.1056 92.8392 16.877 92.8392 16.6432C92.8392 16.488 92.8079 16.3342 92.7465 16.1908C92.6856 16.0473 92.5962 15.917 92.4836 15.8072C92.371 15.6974 92.2373 15.6104 92.0898 15.5509C91.9427 15.4915 91.785 15.4609 91.6257 15.4609Z" fill="white"/>
<path d="M54.9756 4.00586C53.9792 4.00586 53.0055 4.29367 52.1772 4.83289C51.3486 5.37211 50.7032 6.13851 50.3221 7.03521C49.9409 7.93187 49.8409 8.91857 50.0351 9.87049C50.2298 10.8224 50.7093 11.6968 51.4136 12.3831C52.1183 13.0694 53.0156 13.5368 53.993 13.7261C54.9699 13.9155 55.9827 13.8183 56.9031 13.4469C57.8232 13.0755 58.61 12.4465 59.1635 11.6395C59.717 10.8325 60.0124 9.8837 60.0124 8.91312C60.0108 7.61207 59.4801 6.36466 58.5356 5.44468C57.5912 4.52467 56.311 4.00721 54.9756 4.00586ZM54.9756 11.9343C54.362 11.9343 53.7622 11.7571 53.2521 11.425C52.7421 11.093 52.3447 10.6211 52.1098 10.0689C51.8753 9.51671 51.8135 8.90914 51.9334 8.32297C52.0529 7.73676 52.3483 7.19833 52.7823 6.77573C53.216 6.35312 53.7687 6.06531 54.3705 5.94869C54.972 5.83212 55.5958 5.89196 56.1623 6.12065C56.7292 6.34938 57.2136 6.7367 57.5546 7.23362C57.8951 7.73059 58.0772 8.31481 58.0772 8.91248C58.0764 9.71365 57.7493 10.4818 57.1677 11.0483C56.5862 11.6148 55.7978 11.9335 54.9756 11.9343Z" fill="white"/>
<path d="M56.5494 2.36355C56.7892 2.36355 57.0241 2.29421 57.2236 2.16431C57.4232 2.0344 57.5784 1.84975 57.6702 1.63372C57.7621 1.41769 57.7865 1.17998 57.7393 0.950641C57.6926 0.721302 57.5772 0.510643 57.4073 0.345301C57.2374 0.179959 57.0212 0.0673588 56.7859 0.0217409C56.5506 -0.0238771 56.3068 -0.000464291 56.0849 0.0890183C55.863 0.178501 55.6736 0.330035 55.5403 0.524456C55.4071 0.718879 55.3359 0.947458 55.3359 1.18129C55.3359 1.33655 55.3672 1.49028 55.4282 1.63372C55.4891 1.77716 55.5786 1.90749 55.6911 2.01727C55.8037 2.12706 55.9378 2.21414 56.0849 2.27356C56.232 2.33297 56.3901 2.36355 56.5494 2.36355Z" fill="white"/>
<path d="M53.4062 2.36355C53.6464 2.36381 53.8813 2.29467 54.0812 2.16489C54.2808 2.03511 54.4364 1.85051 54.5286 1.63447C54.6205 1.41842 54.6449 1.18063 54.5981 0.951194C54.5514 0.721755 54.4356 0.510977 54.2661 0.34553C54.0963 0.180083 53.8801 0.0674065 53.6443 0.0217567C53.409 -0.0238931 53.1648 -0.000463663 52.9433 0.08908C52.7214 0.178624 52.5316 0.330257 52.3983 0.524794C52.2651 0.719328 52.1939 0.948023 52.1943 1.18193C52.1943 1.49549 52.3219 1.7962 52.5495 2.01792C52.7771 2.23964 53.086 2.3642 53.4078 2.3642" fill="white"/>
<path d="M60.5537 35.9991V34.1143C61.1706 34.1136 61.7619 33.8746 62.198 33.4498C62.634 33.0249 62.8795 32.4488 62.8803 31.8479V22.7236H64.8147V31.8479C64.8135 32.9485 64.364 34.0037 63.5655 34.7819C62.7665 35.5602 61.6835 35.9979 60.5537 35.9991Z" fill="white"/>
<path d="M65.0599 19.901C65.0599 20.1349 64.9888 20.3634 64.8551 20.5579C64.7218 20.7523 64.5324 20.9038 64.3105 20.9933C64.089 21.0828 63.8448 21.1062 63.6095 21.0606C63.3742 21.015 63.158 20.9024 62.9881 20.737C62.8186 20.5717 62.7028 20.361 62.6561 20.1317C62.6093 19.9023 62.6333 19.6646 62.7252 19.4486C62.817 19.2326 62.9727 19.0479 63.1722 18.918C63.3717 18.7881 63.6062 18.7188 63.8464 18.7188C64.1683 18.7188 64.4767 18.8433 64.7043 19.065C64.9319 19.2868 65.0599 19.5875 65.0599 19.901Z" fill="white"/>
<path d="M86.8829 18.7188V23.772C85.9279 23.0376 84.7311 22.6671 83.5164 22.7298C82.2103 22.804 80.9854 23.3702 80.1003 24.3086C79.2152 25.247 78.7397 26.484 78.7742 27.758C78.8088 29.0319 79.3505 30.2428 80.2848 31.1346C81.2195 32.0263 82.4732 32.5289 83.7814 32.536C84.7494 32.5365 85.6967 32.2628 86.5078 31.7482C86.544 31.7249 86.5859 31.7115 86.6294 31.7094C86.6728 31.7074 86.7159 31.7167 86.7541 31.7366C86.7927 31.7564 86.8248 31.786 86.8472 31.8221C86.8699 31.8582 86.8817 31.8996 86.8825 31.9419V32.4843H88.819V18.7188H86.8829ZM83.7814 30.6518C83.1677 30.6518 82.5683 30.4746 82.0583 30.1426C81.5478 29.8105 81.1504 29.3386 80.9159 28.7864C80.681 28.2342 80.6196 27.6266 80.7391 27.0404C80.859 26.4543 81.1545 25.9158 81.5881 25.4932C82.0217 25.0706 82.5744 24.7828 83.1762 24.6662C83.7777 24.5496 84.4015 24.6094 84.9684 24.8382C85.5349 25.0669 86.0194 25.4542 86.3603 25.9511C86.7013 26.4481 86.8829 27.0323 86.8829 27.63C86.8821 28.4312 86.555 29.1993 85.9734 29.7658C85.3923 30.3323 84.6035 30.651 83.7814 30.6518Z" fill="white"/>
<path d="M100.809 27.3843C100.755 26.3041 100.336 25.2715 99.618 24.4468C98.8999 23.6222 97.9225 23.0515 96.8375 22.8234C95.7524 22.5953 94.6202 22.7225 93.6168 23.1853C92.6138 23.6482 91.7954 24.4207 91.2886 25.383C90.7822 26.3454 90.616 27.4437 90.8156 28.5076C91.0151 29.5714 91.5698 30.5413 92.3932 31.2667C93.2165 31.9921 94.2626 32.4324 95.3692 32.5193C96.4758 32.6062 97.5808 32.3348 98.5126 31.7473C98.5488 31.7239 98.5911 31.7105 98.6341 31.7085C98.6776 31.7064 98.7207 31.7158 98.7589 31.7356C98.7975 31.7555 98.8296 31.785 98.852 31.8212C98.8747 31.8573 98.8869 31.8987 98.8873 31.941V32.4834H100.809V27.3843ZM95.7853 30.6502C95.1721 30.6502 94.5722 30.473 94.0622 30.141C93.5522 29.8089 93.1548 29.337 92.9199 28.7848C92.685 28.2326 92.6236 27.6251 92.7435 27.0389C92.863 26.4527 93.1584 25.9143 93.592 25.4917C94.0261 25.069 94.5787 24.7812 95.1802 24.6646C95.7821 24.5481 96.4055 24.6079 96.9724 24.8366C97.5393 25.0653 98.0237 25.4526 98.3643 25.9496C98.7052 26.4465 98.8873 27.0307 98.8873 27.6284C98.8861 28.4296 98.5594 29.1977 97.9778 29.7642C97.3963 30.3308 96.6079 30.6494 95.7853 30.6502Z" fill="white"/>
<path d="M76.8105 27.3853C76.7565 26.3049 76.3379 25.2722 75.6198 24.4473C74.9013 23.6224 73.9239 23.0516 72.8385 22.8234C71.7534 22.5952 70.6212 22.7225 69.6174 23.1854C68.614 23.6483 67.7956 24.4209 67.2888 25.3835C66.7824 26.346 66.6158 27.4445 66.8157 28.5085C67.0157 29.5725 67.5704 30.5425 68.3938 31.268C69.2171 31.9934 70.2636 32.4338 71.3702 32.5206C72.4768 32.6075 73.5822 32.336 74.514 31.7483C74.5506 31.725 74.5925 31.7116 74.6359 31.7095C74.679 31.7075 74.7221 31.7168 74.7607 31.7367C74.7989 31.7565 74.831 31.786 74.8538 31.8222C74.8761 31.8583 74.8883 31.8997 74.8887 31.942V32.4844H76.8105V27.3853ZM71.7871 30.6513C71.1735 30.6513 70.5736 30.474 70.0636 30.142C69.5536 29.8099 69.1562 29.338 68.9213 28.7858C68.6868 28.2336 68.625 27.6261 68.7449 27.0399C68.8644 26.4537 69.1598 25.9153 69.5938 25.4927C70.0275 25.07 70.5801 24.7822 71.182 24.6656C71.7835 24.5491 72.4073 24.6089 72.9738 24.8376C73.5407 25.0663 74.0251 25.4536 74.3661 25.9506C74.7066 26.4475 74.8887 27.0318 74.8887 27.6294C74.8879 28.4306 74.5607 29.1987 73.9792 29.7653C73.3977 30.3318 72.6093 30.6504 71.7871 30.6513Z" fill="white"/>
<path d="M54.9819 32.5346C54.8048 32.5344 54.628 32.5253 54.452 32.5075C53.1735 32.37 51.9978 31.7613 51.1655 30.8064C50.3328 29.8514 49.9069 28.6223 49.9748 27.3712C50.0427 26.12 50.599 24.9416 51.5301 24.0773C52.4611 23.2129 53.6961 22.7283 54.9819 22.7227C57.5381 22.7227 59.9818 24.6074 59.9818 28.1065H51.9141C52.0108 28.6913 52.2819 29.2357 52.6931 29.6719C53.1048 30.1081 53.6388 30.417 54.2285 30.5601C54.8186 30.7033 55.4391 30.6745 56.0126 30.4773C56.586 30.2801 57.087 29.9231 57.454 29.4508L58.9963 30.5892C58.5285 31.1948 57.9222 31.6859 57.2252 32.0235C56.5287 32.3611 55.761 32.5359 54.9828 32.534M52.2315 26.221H57.7251C57.4605 25.7349 57.0651 25.3282 56.5811 25.0445C56.0971 24.7608 55.5432 24.6109 54.9783 24.6109C54.4138 24.6109 53.8595 24.7608 53.3755 25.0445C52.8915 25.3282 52.496 25.7349 52.2315 26.221Z" fill="white"/>
<path d="M34.5252 22.5344C33.7236 24.4072 32.4384 26.0461 30.7945 27.292C29.1505 28.5379 27.2038 29.3483 25.1433 29.6445C23.0829 29.9407 20.9788 29.7127 19.0356 28.9825C17.0923 28.2523 15.376 27.0448 14.0533 25.4774C12.7113 25.9436 10.7442 26.5887 10.6428 26.6222C10.9907 26.3265 11.3433 26.0366 11.7032 25.7564C12.5427 25.1008 13.4105 24.4895 14.3065 23.9226C18.3281 21.3638 22.8871 19.7157 27.6485 19.0993L26.2322 12.0806C22.8161 12.9199 19.5338 14.2101 16.4764 15.9154C14.6797 16.9076 12.9725 18.0464 11.3732 19.3195C11.1424 17.3377 11.4326 15.3314 12.2163 13.4889C13.0001 11.6464 14.2518 10.0283 15.8537 8.78662C17.4557 7.54485 19.3554 6.72029 21.3743 6.3903C23.3932 6.06032 25.4651 6.23577 27.3953 6.9002L31.0133 1.6139C27.7467 0.166108 24.118 -0.322957 20.5707 0.206514C17.0234 0.735985 13.7113 2.26104 11.0396 4.59519C8.36773 6.92936 6.45196 9.97145 5.52649 13.3495C4.60106 16.7275 4.70603 20.2951 5.82856 23.6159C5.90968 23.8621 5.92662 24.1241 5.8779 24.3783C5.82921 24.6325 5.71636 24.8708 5.54953 25.0719C3.51231 27.5695 1.81506 30.3132 0.5 33.2348L3.64411 34.9271C4.83038 32.917 6.23272 31.0354 7.82744 29.3141C7.90368 29.2296 7.99788 29.1623 8.10354 29.1168C8.2092 29.0713 8.32376 29.0488 8.43926 29.0508C8.55475 29.0529 8.66838 29.0793 8.7723 29.1285C8.87621 29.1777 8.96789 29.2483 9.04092 29.3355C10.9698 31.6553 13.4612 33.4707 16.2904 34.6178C19.1195 35.7648 22.1973 36.2075 25.246 35.9059C28.2947 35.6043 31.2183 34.5678 33.7529 32.8899C36.2876 31.2121 38.3535 28.9458 39.7643 26.2955L34.5252 22.5344Z" fill="white"/>
<path d="M40.7014 15.0378C40.7014 15.9618 40.4202 16.865 39.8933 17.6332C39.3664 18.4014 38.6175 19.0002 37.7414 19.3538C36.8652 19.7074 35.901 19.7999 34.9709 19.6197C34.0408 19.4394 33.1864 18.9945 32.5158 18.3411C31.8452 17.6878 31.3885 16.8554 31.2035 15.9492C31.0185 15.043 31.1134 14.1037 31.4763 13.2501C31.8393 12.3965 32.4538 11.6669 33.2424 11.1535C34.0309 10.6402 34.958 10.3662 35.9064 10.3662C37.1781 10.3662 38.3977 10.8584 39.297 11.7345C40.1962 12.6106 40.7014 13.7988 40.7014 15.0378Z" fill="white"/>
</g>
</svg>
