<svg width="214" height="78" viewBox="0 0 214 78" fill="none" xmlns="http://www.w3.org/2000/svg">
<path d="M211.749 -0.00012207H207.666V29.8309H211.749V-0.00012207Z" fill="white"/>
<mask id="mask0_1143_193114" style="mask-type:luminance" maskUnits="userSpaceOnUse" x="0" y="-1" width="214" height="79">
<path d="M213.2 -0.00012207H0V78H213.2V-0.00012207Z" fill="white"/>
</mask>
<g mask="url(#mask0_1143_193114)">
<path d="M209.525 37.3978C209.462 37.2668 209.428 37.1236 209.426 36.9781C209.422 36.8259 209.452 36.6747 209.515 36.5358C209.577 36.3968 209.669 36.2735 209.785 36.1751C209.9 36.1149 210.027 36.0811 210.157 36.0763C210.286 36.0714 210.415 36.0956 210.534 36.1471C211.044 36.3401 211.533 36.5863 211.992 36.8816L213.196 34.6306C211.492 33.7184 209.731 32.7755 207.979 34.334C207.578 34.7331 207.276 35.2206 207.097 35.7575C206.918 36.2944 206.867 36.8657 206.948 37.4258C206.959 37.4979 206.953 37.5713 206.933 37.6412C206.912 37.711 206.877 37.7756 206.829 37.8308C206.782 37.8859 206.723 37.9302 206.657 37.9607C206.591 37.9912 206.519 38.0073 206.446 38.0078H206.21V40.5638H213.192V38.0106H210.782C210.536 38.0347 210.289 37.9908 210.067 37.8837C209.845 37.7766 209.656 37.6104 209.522 37.4034" fill="white"/>
<path d="M138.297 8.68004V12.7637C140.017 12.7889 141.657 13.4897 142.865 14.7147C144.072 15.9397 144.749 17.5905 144.749 19.3104C144.749 21.0303 144.072 22.6811 142.865 23.9061C141.657 25.1311 140.017 25.8319 138.297 25.857H129.708V29.9407H138.297C141.117 29.9407 143.821 28.8205 145.815 26.8265C147.809 24.8326 148.929 22.1282 148.929 19.3083C148.929 16.4884 147.809 13.784 145.815 11.79C143.821 9.79604 141.117 8.67584 138.297 8.67584" fill="white"/>
<path d="M193 8.67383H180.538V12.7631H193C194.722 12.7631 196.374 13.4473 197.592 14.665C198.809 15.8828 199.494 17.5344 199.494 19.2566C199.494 20.9788 198.809 22.6304 197.592 23.8482C196.374 25.066 194.722 25.7501 193 25.7501H157.096V0H153.012V27.7912C153.012 28.333 153.228 28.8525 153.611 29.2355C153.994 29.6186 154.513 29.8338 155.055 29.8338H192.999C195.783 29.8018 198.442 28.6733 200.4 26.6932C202.357 24.713 203.455 22.041 203.455 19.2566C203.455 16.4722 202.357 13.8002 200.4 11.8201C198.442 9.83992 195.783 8.71145 192.999 8.67943" fill="white"/>
<path d="M192.354 33.4984C191.847 33.4984 191.352 33.6486 190.931 33.9301C190.509 34.2116 190.181 34.6117 189.987 35.0797C189.793 35.5478 189.743 36.0628 189.841 36.5597C189.94 37.0566 190.184 37.5131 190.542 37.8713C190.901 38.2295 191.357 38.4735 191.854 38.5723C192.351 38.6712 192.866 38.6205 193.334 38.4266C193.802 38.2327 194.202 37.9044 194.484 37.4831C194.765 37.0619 194.915 36.5666 194.915 36.06C194.915 35.7236 194.849 35.3905 194.72 35.0797C194.592 34.7689 194.403 34.4865 194.165 34.2487C193.927 34.0108 193.645 33.8221 193.334 33.6934C193.023 33.5647 192.69 33.4984 192.354 33.4984Z" fill="white"/>
<path d="M115.558 8.39355C113.455 8.39355 111.399 9.01713 109.651 10.1854C107.902 11.3537 106.54 13.0143 105.735 14.9571C104.93 16.9 104.72 19.0378 105.13 21.1003C105.54 23.1628 106.553 25.0573 108.04 26.5443C109.527 28.0312 111.421 29.0439 113.484 29.4541C115.546 29.8644 117.684 29.6538 119.627 28.8491C121.57 28.0443 123.23 26.6816 124.398 24.9331C125.567 23.1846 126.19 21.1289 126.19 19.026C126.187 16.207 125.066 13.5043 123.073 11.511C121.08 9.51767 118.377 8.39652 115.558 8.39355ZM115.558 25.5719C114.263 25.5719 112.997 25.1879 111.92 24.4685C110.844 23.7491 110.004 22.7265 109.509 21.5302C109.013 20.3338 108.884 19.0173 109.136 17.7473C109.389 16.4772 110.013 15.3106 110.928 14.3949C111.844 13.4793 113.011 12.8557 114.281 12.6031C115.551 12.3504 116.867 12.4801 118.063 12.9756C119.26 13.4712 120.282 14.3104 121.002 15.3871C121.721 16.4638 122.105 17.7297 122.105 19.0246C122.103 20.7605 121.413 22.4248 120.186 23.6522C118.958 24.8797 117.294 25.5701 115.558 25.5719Z" fill="white"/>
<path d="M118.315 5.12151C118.822 5.12151 119.317 4.97128 119.739 4.68981C120.16 4.40834 120.488 4.00827 120.682 3.5402C120.876 3.07214 120.927 2.55709 120.828 2.06019C120.729 1.56329 120.485 1.10687 120.127 0.748622C119.769 0.390379 119.312 0.146412 118.815 0.0475732C118.318 -0.0512659 117.803 -0.000538066 117.335 0.193342C116.867 0.387222 116.467 0.715545 116.186 1.13679C115.904 1.55804 115.754 2.0533 115.754 2.55993C115.754 2.89632 115.82 3.22942 115.949 3.5402C116.078 3.85099 116.266 4.13338 116.504 4.37124C116.742 4.60911 117.024 4.79779 117.335 4.92652C117.646 5.05525 117.979 5.12151 118.315 5.12151Z" fill="white"/>
<path d="M111.674 5.12151C112.18 5.12206 112.676 4.97226 113.098 4.69107C113.519 4.40987 113.848 4.00992 114.042 3.54182C114.237 3.07372 114.288 2.55851 114.189 2.06139C114.09 1.56427 113.847 1.10758 113.488 0.749117C113.13 0.39065 112.673 0.146515 112.176 0.0476075C111.679 -0.0513005 111.164 -0.00053669 110.696 0.193475C110.228 0.387487 109.828 0.716027 109.546 1.13752C109.265 1.55901 109.115 2.05452 109.115 2.56133C109.115 3.2407 109.385 3.89225 109.865 4.37264C110.346 4.85303 110.997 5.12291 111.676 5.12291" fill="white"/>
<path d="M126.767 77.9993V73.9156C128.069 73.9141 129.317 73.3963 130.238 72.4757C131.158 71.5551 131.676 70.307 131.677 69.0051V49.2357H135.761V69.0051C135.759 71.3897 134.81 73.6759 133.124 75.3621C131.438 77.0482 129.152 77.9967 126.767 77.9993Z" fill="white"/>
<path d="M136.281 43.1182C136.281 43.6248 136.131 44.12 135.849 44.5413C135.568 44.9625 135.168 45.2909 134.699 45.4848C134.231 45.6786 133.716 45.7294 133.219 45.6305C132.723 45.5317 132.266 45.2877 131.908 44.9295C131.55 44.5712 131.306 44.1148 131.207 43.6179C131.108 43.121 131.159 42.606 131.353 42.1379C131.547 41.6698 131.875 41.2698 132.296 40.9883C132.717 40.7068 133.213 40.5566 133.719 40.5566C134.399 40.5566 135.05 40.8265 135.531 41.3068C136.011 41.7872 136.281 42.4388 136.281 43.1182Z" fill="white"/>
<path d="M182.341 40.5566V51.5052C180.325 49.914 177.799 49.1113 175.234 49.2472C172.478 49.4079 169.892 50.6346 168.024 52.6679C166.156 54.7011 165.152 57.3813 165.224 60.1416C165.297 62.9018 166.441 65.5255 168.413 67.4575C170.386 69.3896 173.033 70.4785 175.794 70.4939C177.837 70.495 179.837 69.902 181.549 68.7871C181.626 68.7365 181.714 68.7075 181.806 68.703C181.898 68.6986 181.989 68.7189 182.069 68.7619C182.15 68.8049 182.218 68.8689 182.266 68.9472C182.313 69.0255 182.339 69.1152 182.34 69.2068V70.382H186.428V40.5566H182.341ZM175.794 66.4116C174.499 66.4116 173.233 66.0276 172.156 65.3082C171.08 64.5887 170.24 63.5662 169.745 62.3698C169.249 61.1734 169.12 59.857 169.372 58.5869C169.625 57.3169 170.249 56.1502 171.164 55.2346C172.08 54.3189 173.247 53.6953 174.517 53.4427C175.787 53.1901 177.103 53.3197 178.3 53.8153C179.496 54.3109 180.518 55.15 181.238 56.2267C181.957 57.3034 182.341 58.5693 182.341 59.8643C182.339 61.6002 181.649 63.2644 180.422 64.4919C179.194 65.7193 177.53 66.4097 175.794 66.4116Z" fill="white"/>
<path d="M211.748 59.3324C211.634 56.992 210.75 54.7547 209.234 52.9679C207.718 51.181 205.655 49.9445 203.364 49.4503C201.074 48.9561 198.684 49.2318 196.566 50.2346C194.448 51.2374 192.721 52.9112 191.651 54.9963C190.582 57.0814 190.231 59.4612 190.653 61.7662C191.074 64.0712 192.245 66.1726 193.983 67.7443C195.721 69.3159 197.929 70.2699 200.265 70.4582C202.601 70.6465 204.933 70.0585 206.9 68.7855C206.977 68.7349 207.065 68.7059 207.157 68.7014C207.249 68.697 207.34 68.7173 207.421 68.7603C207.501 68.8033 207.569 68.8673 207.617 68.9456C207.664 69.0239 207.69 69.1136 207.691 69.2052V70.3804H211.748V59.3324ZM201.144 66.4086C199.849 66.4086 198.583 66.0246 197.506 65.3052C196.429 64.5858 195.59 63.5632 195.095 62.3668C194.599 61.1705 194.469 59.854 194.722 58.584C194.975 57.3139 195.598 56.1473 196.514 55.2316C197.43 54.3159 198.596 53.6924 199.866 53.4397C201.136 53.1871 202.453 53.3168 203.649 53.8123C204.845 54.3079 205.868 55.1471 206.587 56.2238C207.307 57.3005 207.691 58.5663 207.691 59.8613C207.689 61.5972 206.999 63.2614 205.771 64.4889C204.544 65.7164 202.879 66.4068 201.144 66.4086Z" fill="white"/>
<path d="M161.079 59.3346C160.965 56.9937 160.081 54.756 158.565 52.9688C157.049 51.1816 154.985 49.9448 152.694 49.4504C150.403 48.956 148.013 49.2317 145.895 50.2346C143.777 51.2376 142.049 52.9117 140.98 54.9971C139.91 57.0825 139.559 59.4627 139.981 61.7681C140.403 64.0735 141.573 66.1752 143.312 67.747C145.05 69.3188 147.259 70.2729 149.595 70.4611C151.931 70.6492 154.264 70.061 156.231 68.7877C156.308 68.7371 156.396 68.708 156.488 68.7036C156.579 68.6991 156.671 68.7195 156.751 68.7625C156.832 68.8054 156.9 68.8694 156.948 68.9478C156.995 69.0261 157.021 69.1158 157.022 69.2074V70.3825H161.079V59.3346ZM150.474 66.4108C149.18 66.4108 147.914 66.0268 146.837 65.3073C145.76 64.5879 144.921 63.5653 144.426 62.369C143.93 61.1726 143.8 59.8562 144.053 58.5861C144.306 57.316 144.929 56.1494 145.845 55.2337C146.761 54.3181 147.927 53.6945 149.197 53.4419C150.467 53.1893 151.784 53.3189 152.98 53.8145C154.176 54.31 155.199 55.1492 155.918 56.2259C156.638 57.3026 157.022 58.5685 157.022 59.8634C157.02 61.5993 156.33 63.2636 155.102 64.4911C153.875 65.7185 152.21 66.4089 150.474 66.4108Z" fill="white"/>
<path d="M115.002 70.4933C114.628 70.4929 114.254 70.4733 113.883 70.4346C111.184 70.1366 108.702 68.8179 106.945 66.7487C105.188 64.6796 104.289 62.0167 104.432 59.3059C104.575 56.5951 105.75 54.0417 107.715 52.169C109.68 50.2963 112.287 49.2463 115.002 49.2341C120.398 49.2341 125.556 53.3178 125.556 60.899H108.526C108.73 62.1662 109.302 63.3456 110.17 64.2907C111.039 65.2358 112.166 65.905 113.411 66.2153C114.657 66.5255 115.966 66.4631 117.177 66.0358C118.387 65.6085 119.445 64.8351 120.22 63.8117L123.475 66.2781C122.488 67.5905 121.208 68.6545 119.737 69.386C118.266 70.1174 116.646 70.4961 115.003 70.4919M109.196 56.8139H120.792C120.234 55.7606 119.399 54.8793 118.377 54.2647C117.356 53.6501 116.186 53.3253 114.994 53.3253C113.802 53.3253 112.632 53.6501 111.611 54.2647C110.589 54.8793 109.754 55.7606 109.196 56.8139Z" fill="white"/>
<path d="M71.8235 48.825C70.1314 52.8828 67.4185 56.4339 63.9483 59.1332C60.4781 61.8326 56.3687 63.5885 52.0193 64.2303C47.67 64.8721 43.2286 64.378 39.1266 62.796C35.0247 61.2139 31.4017 58.5977 28.6097 55.2016C25.7767 56.2117 21.6244 57.6093 21.4104 57.6821C22.1449 57.0413 22.8891 56.4132 23.6488 55.806C25.4209 54.3855 27.2526 53.0612 29.1441 51.8328C37.6331 46.2888 47.2568 42.7178 57.3074 41.3823L54.3178 26.1751C47.1069 27.9936 40.1783 30.789 33.7244 34.4838C29.9318 36.6337 26.3281 39.101 22.9521 41.8593C22.465 37.5656 23.0774 33.2185 24.7319 29.2265C26.3863 25.2344 29.0284 21.7285 32.41 19.0381C35.7916 16.3477 39.8016 14.561 44.0633 13.8461C48.3251 13.1311 52.6986 13.5113 56.773 14.9509L64.4102 3.49721C57.5149 0.360309 49.8549 -0.699334 42.367 0.447855C34.8791 1.59504 27.8877 4.89934 22.2478 9.9567C16.6079 15.014 12.5639 21.6053 10.6104 28.9243C8.65687 36.2434 8.87843 43.9731 11.248 51.1683C11.4192 51.7017 11.455 52.2694 11.3522 52.8201C11.2494 53.3708 11.0112 53.8873 10.659 54.3231C6.35866 59.7345 2.77595 65.6792 0 72.0093L6.63688 75.6761C9.14098 71.3207 12.1011 67.2439 15.4674 63.5145C15.6283 63.3313 15.8272 63.1854 16.0503 63.0869C16.2733 62.9884 16.5151 62.9396 16.7589 62.944C17.0027 62.9484 17.2426 63.0058 17.4619 63.1123C17.6813 63.2188 17.8748 63.3718 18.029 63.5607C22.1006 68.587 27.3597 72.5203 33.3317 75.0057C39.3038 77.4911 45.8007 78.4503 52.2361 77.7967C58.6715 77.1431 64.8429 74.8973 70.1933 71.2621C75.5437 67.6268 79.9047 62.7164 82.8827 56.9742L71.8235 48.825Z" fill="white"/>
<path d="M84.8667 32.5806C84.8667 34.5825 84.2731 36.5394 83.1609 38.204C82.0487 39.8685 80.4679 41.1658 78.6184 41.9319C76.7688 42.698 74.7337 42.8985 72.7703 42.5079C70.8068 42.1174 69.0033 41.1533 67.5877 39.7378C66.1722 38.3222 65.2082 36.5187 64.8176 34.5553C64.427 32.5918 64.6275 30.5567 65.3936 28.7072C66.1597 26.8576 67.457 25.2768 69.1215 24.1646C70.7861 23.0524 72.743 22.4588 74.7449 22.4588C77.4294 22.4588 80.0039 23.5252 81.9021 25.4234C83.8003 27.3216 84.8667 29.8961 84.8667 32.5806Z" fill="white"/>
</g>
</svg>
