<svg width="14" height="14" viewBox="0 0 14 14" fill="none" xmlns="http://www.w3.org/2000/svg">
<path d="M10.334 1.22664C11.3395 1.80721 12.1759 2.64032 12.7605 3.6435C13.3451 4.64669 13.6576 5.78515 13.6669 6.9462C13.6763 8.10724 13.3823 9.25061 12.814 10.2631C12.2457 11.2756 11.4228 12.1221 10.4268 12.7188C9.43081 13.3156 8.29623 13.6419 7.13538 13.6653C5.97454 13.6888 4.82768 13.4087 3.80835 12.8528C2.78902 12.2968 1.93257 11.4843 1.32376 10.4956C0.714959 9.50697 0.374924 8.37644 0.337318 7.21597L0.333984 6.99997L0.337318 6.78397C0.374653 5.63263 0.709683 4.51061 1.30974 3.5273C1.90981 2.54399 2.75442 1.73294 3.76125 1.17322C4.76807 0.613511 5.90275 0.324233 7.05466 0.333594C8.20656 0.342955 9.33639 0.650634 10.334 1.22664ZM7.00732 8.99997L6.92265 9.00464C6.76062 9.02391 6.61128 9.10194 6.50293 9.22395C6.39457 9.34595 6.33473 9.50346 6.33473 9.66664C6.33473 9.82981 6.39457 9.98732 6.50293 10.1093C6.61128 10.2313 6.76062 10.3094 6.92265 10.3286L7.00065 10.3333L7.08532 10.3286C7.24735 10.3094 7.39669 10.2313 7.50504 10.1093C7.6134 9.98732 7.67324 9.82981 7.67324 9.66664C7.67324 9.50346 7.6134 9.34595 7.50504 9.22395C7.39669 9.10194 7.24735 9.02391 7.08532 9.00464L7.00732 8.99997ZM7.00065 3.66664C6.83736 3.66666 6.67976 3.72661 6.55774 3.83511C6.43571 3.94362 6.35776 4.09314 6.33865 4.2553L6.33398 4.3333V6.99997L6.33865 7.07797C6.35792 7.24 6.43596 7.38934 6.55796 7.49769C6.67997 7.60605 6.83748 7.66589 7.00065 7.66589C7.16383 7.66589 7.32133 7.60605 7.44334 7.49769C7.56535 7.38934 7.64338 7.24 7.66265 7.07797L7.66732 6.99997V4.3333L7.66265 4.2553C7.64355 4.09314 7.56559 3.94362 7.44357 3.83511C7.32154 3.72661 7.16394 3.66666 7.00065 3.66664Z" fill="#ED696A"/>
</svg>
