<svg width="39" height="40" viewBox="0 0 39 40" fill="none" xmlns="http://www.w3.org/2000/svg">
<path d="M30.3115 17.1623C35.0665 17.1623 38.9215 13.3204 38.9215 8.58119C38.9215 3.84193 35.0665 0 30.3115 0C25.5555 0 21.7005 3.84193 21.7005 8.58119C21.7005 13.3204 25.5555 17.1623 30.3115 17.1623Z" fill="#00F08A"/>
<path d="M8.6106 17.1623C13.366 17.1623 17.2215 13.3204 17.2215 8.58119C17.2215 3.84193 13.366 0 8.6106 0C3.8551 0 0 3.84193 0 8.58119C0 13.3204 3.8551 17.1623 8.6106 17.1623Z" fill="white"/>
<path d="M30.3115 39.1307C35.0665 39.1307 38.9215 35.2888 38.9215 30.5495C38.9215 25.8103 35.0665 21.9683 30.3115 21.9683C25.5555 21.9683 21.7005 25.8103 21.7005 30.5495C21.7005 35.2888 25.5555 39.1307 30.3115 39.1307Z" fill="white"/>
<path d="M8.6106 39.1307C13.366 39.1307 17.2215 35.2888 17.2215 30.5495C17.2215 25.8103 13.366 21.9683 8.6106 21.9683C3.8551 21.9683 0 25.8103 0 30.5495C0 35.2888 3.8551 39.1307 8.6106 39.1307Z" fill="white"/>
</svg>
