<svg width="244" height="80" viewBox="0 0 244 80" fill="none" xmlns="http://www.w3.org/2000/svg">
<g clip-path="url(#clip0_65_57)">
<path d="M225.889 35.5821C235.367 35.5821 243.051 27.8982 243.051 18.4197C243.051 8.94118 235.367 1.25732 225.889 1.25732C216.41 1.25732 208.727 8.94118 208.727 18.4197C208.727 27.8982 216.41 35.5821 225.889 35.5821Z" fill="#00F08A"/>
<path d="M182.636 35.5821C192.114 35.5821 199.798 27.8982 199.798 18.4197C199.798 8.94118 192.114 1.25732 182.636 1.25732C173.157 1.25732 165.473 8.94118 165.473 18.4197C165.473 27.8982 173.157 35.5821 182.636 35.5821Z" fill="white"/>
<path d="M225.889 79.5186C235.367 79.5186 243.051 71.8348 243.051 62.3562C243.051 52.8777 235.367 45.1938 225.889 45.1938C216.41 45.1938 208.727 52.8777 208.727 62.3562C208.727 71.8348 216.41 79.5186 225.889 79.5186Z" fill="white"/>
<path d="M182.636 79.5186C192.114 79.5186 199.798 71.8348 199.798 62.3562C199.798 52.8777 192.114 45.1938 182.636 45.1938C173.157 45.1938 165.473 52.8777 165.473 62.3562C165.473 71.8348 173.157 79.5186 182.636 79.5186Z" fill="white"/>
<path d="M20.9583 71.4732H4.56427C5.73259 74.5683 9.12269 76.497 12.3603 75.4079C13.3564 75.0732 14.1663 74.4336 14.9643 73.7801L17.8494 76.7247C12.5722 81.9663 3.33457 80.0098 0.776156 72.998C-2.23969 64.7306 5.59794 56.7524 13.9385 59.5029C19.0098 61.1742 21.0039 66.5168 20.9583 71.4732ZM16.5266 67.493C15.1247 63.5326 10.6474 61.5801 7.01774 64.1465C5.88507 64.9485 4.96823 66.1584 4.56427 67.493H16.5266Z" fill="white"/>
<path d="M50.1463 49.3545V60.9446L52.2414 59.808C58.6414 57.0832 65.6176 61.4258 66.1879 68.2416L66.1839 79.3486H62.1958V68.3327C62.1958 67.7189 61.6968 66.5089 61.382 65.9604C58.5483 61.0456 51.0651 62.5228 50.2453 68.1664C50.0295 71.8812 50.2018 75.6238 50.1463 79.3486H46.1582V49.3545H50.1463Z" fill="white"/>
<path d="M91.8572 79.3485H87.7819V77.4019L86.3344 78.3009C78.2611 83.0039 68.776 75.1386 71.4532 66.2732C74.776 55.2712 91.2512 56.9524 91.8611 69.39C92.0215 72.6613 91.7344 76.0633 91.8572 79.3465V79.3485ZM80.9403 62.9188C75.2473 63.396 72.8948 70.5049 77.2829 74.2138C82.3364 78.4871 89.774 73.1346 87.3403 66.9148C86.3661 64.4257 83.6215 62.693 80.9403 62.9168V62.9188Z" fill="white"/>
<path d="M129.465 79.3486H125.477V77.4021C124.899 77.6635 124.41 78.0853 123.853 78.3902C114.031 83.7843 104.071 71.6991 110.911 62.9011C116.721 55.4239 128.633 59.1645 129.469 68.418L129.465 79.3486ZM118.635 62.9189C110.222 63.5684 111.146 76.3051 119.582 75.7209C127.911 75.1447 126.998 62.2734 118.635 62.9189Z" fill="white"/>
<path d="M39.3622 59.3526V63.3348H31.0771C30.8474 63.3348 30.1187 63.7744 29.9345 63.9645C28.8909 65.0417 29.4494 67.0852 30.9048 67.311C32.5503 67.5684 34.6038 67.1288 36.3701 67.4278C40.7563 68.1664 42.8731 73.2872 40.2315 76.9011C39.38 78.0654 37.4335 79.3486 35.9484 79.3486H26.0692V75.3664H35.683C36.4454 75.3664 37.289 74.3407 37.3899 73.6199C37.5187 72.707 36.7899 71.5367 35.8553 71.3902C34.2098 71.1328 32.1563 71.5724 30.3899 71.2734C24.8771 70.3446 23.5385 62.9724 28.3464 60.1645C28.887 59.8496 30.2097 59.3506 30.8097 59.3506H39.3602L39.3622 59.3526Z" fill="white"/>
<path d="M106.63 58.998V62.9802C104.103 62.9565 101.62 64.7129 100.913 67.1386C100.824 67.4456 100.604 68.3287 100.604 68.6V79.3505H96.6157V59.3545H100.604V60.9466C101.119 60.705 101.566 60.3307 102.079 60.0733C103.443 59.3881 105.101 58.9723 106.63 59V58.998Z" fill="white"/>
<path d="M139.683 51.3486V59.3783H144.824V63.3922H139.683V74.3764C139.683 74.4437 140.151 75.1585 140.254 75.2575C141.042 76.01 142.285 75.9031 143.077 75.2199L145.822 77.9605C143.232 80.9764 138.21 80.1031 136.353 76.6971C136.216 76.4457 135.661 75.1169 135.661 74.9348V63.3922H133.426V59.3783H135.493L135.661 59.212V51.3506H139.685L139.683 51.3486Z" fill="white"/>
<path d="M140.455 0.196045H135.8V34.204H140.455V0.196045Z" fill="white"/>
<path d="M137.929 40.7445C137.861 40.6079 137.82 40.4475 137.816 40.2613C137.808 39.9346 137.956 39.5465 138.226 39.3445C138.463 39.1663 138.806 39.2336 139.079 39.3128C139.681 39.4871 140.194 39.8574 140.741 40.1504L142.113 37.5841C140.17 36.5445 138.162 35.4692 136.164 37.2455C135.261 38.0494 134.828 39.4435 134.988 40.7702C135.032 41.1207 134.77 41.4336 134.416 41.4336H134.146V44.3425H142.105V41.4336H139.358C138.78 41.4336 138.174 41.2395 137.927 40.7425" fill="white"/>
<path d="M56.9502 44.4654V39.8099C60.0373 39.8099 62.5482 37.299 62.5482 34.2119V16.6772H67.2037V34.2119C67.2037 39.8654 62.6037 44.4654 56.9502 44.4654Z" fill="white"/>
<path d="M91.0711 29.5505H77.7404V0.196045H73.085V31.8792C73.085 33.1644 74.1265 34.2079 75.4137 34.2079H91.0731C92.5246 34.2079 92.3859 29.5525 91.0731 29.5525L91.0711 29.5505Z" fill="white"/>
<path d="M91.2075 34.1802V29.5525C96.5798 29.5525 97.2293 25.4851 97.2986 25.3049L101.865 25.996C101.435 28.8277 98.6531 34.1802 91.2095 34.1802H91.2075Z" fill="white"/>
<path d="M117.354 18.9922C118.966 18.9922 120.273 17.6852 120.273 16.0734C120.273 14.4615 118.966 13.1545 117.354 13.1545C115.742 13.1545 114.436 14.4615 114.436 16.0734C114.436 17.6852 115.742 18.9922 117.354 18.9922Z" fill="white"/>
<path d="M109.788 18.9922C111.4 18.9922 112.707 17.6852 112.707 16.0734C112.707 14.4615 111.4 13.1545 109.788 13.1545C108.176 13.1545 106.869 14.4615 106.869 16.0734C106.869 17.6852 108.176 18.9922 109.788 18.9922Z" fill="white"/>
<path d="M113.186 10.6555C114.798 10.6555 116.105 9.34857 116.105 7.73669C116.105 6.12481 114.798 4.81787 113.186 4.81787C111.574 4.81787 110.267 6.12481 110.267 7.73669C110.267 9.34857 111.574 10.6555 113.186 10.6555Z" fill="white"/>
<path d="M126.612 22.5742C126.608 23.293 126.424 29.596 121.568 29.596C117.39 29.596 116.416 26.4633 116.188 25.0712C116.186 24.9544 116.184 24.8653 116.184 24.792H111.556C111.566 24.9841 111.564 25.2099 111.562 25.4237C111.542 26.2217 111.337 27.5861 110.525 28.4693C109.838 29.2158 108.723 29.596 107.212 29.596C102.368 29.596 101.828 25.3841 101.77 24.5584L97.4474 24.5703C97.4059 24.9148 97.3207 25.2039 97.2197 25.6079C97.7128 28.9762 100.249 34.2237 107.21 34.2237C110.802 34.2237 112.867 32.7742 113.968 31.5584C114.057 31.4594 114.135 31.3564 114.218 31.2574C115.782 32.9505 118.133 34.2257 121.566 34.2257C125.546 34.2257 128.598 32.0495 130.156 28.097C131.208 25.4336 131.238 22.8673 131.238 22.5841L126.61 22.5762L126.612 22.5742Z" fill="white"/>
<path d="M40.3842 18.709H35.9149C36.1426 19.6912 36.1901 20.8219 36.1901 22.008C36.1901 26.0892 32.8693 29.41 28.7881 29.41H13.0337V34.0654H28.7881C35.4377 34.0654 40.8456 28.6575 40.8456 22.008C40.8456 20.8634 40.6812 19.7585 40.3822 18.709H40.3842Z" fill="white"/>
<path d="M24.4671 17.8752C26.079 17.8752 27.386 16.5683 27.386 14.9564C27.386 13.3445 26.079 12.0376 24.4671 12.0376C22.8553 12.0376 21.5483 13.3445 21.5483 14.9564C21.5483 16.5683 22.8553 17.8752 24.4671 17.8752Z" fill="white"/>
<path d="M16.9007 17.8752C18.5126 17.8752 19.8196 16.5683 19.8196 14.9564C19.8196 13.3445 18.5126 12.0376 16.9007 12.0376C15.2889 12.0376 13.9819 13.3445 13.9819 14.9564C13.9819 16.5683 15.2889 17.8752 16.9007 17.8752Z" fill="white"/>
<path d="M2.50875 18.709H6.97806C6.75033 19.6912 6.70281 20.8219 6.70281 22.008C6.70281 26.0892 10.0236 29.41 14.1048 29.41H19.2493H25.7246H29.8592V34.0654H25.7246H19.2493H14.1048C7.45529 34.0654 2.04736 28.6575 2.04736 22.008C2.04736 20.8634 2.21172 19.7585 2.51073 18.709H2.50875Z" fill="white"/>
<path d="M52.0729 0.196045H47.4175V34.204H52.0729V0.196045Z" fill="white"/>
</g>
<defs>
<clipPath id="clip0_65_57">
<rect width="243.168" height="80" fill="white"/>
</clipPath>
</defs>
</svg>
