<svg width="138" height="138" viewBox="0 0 138 138" fill="none" xmlns="http://www.w3.org/2000/svg">
<circle cx="69" cy="69" r="69" fill="#FFE4E4"/>
<mask id="mask0_2380_61077" style="mask-type:alpha" maskUnits="userSpaceOnUse" x="23" y="24" width="92" height="92">
<path fill-rule="evenodd" clip-rule="evenodd" d="M68.9492 24.3C43.7867 24.3 23.1992 44.8875 23.1992 70.05C23.1992 95.2125 43.7867 115.8 68.9492 115.8C94.1117 115.8 114.699 95.2125 114.699 70.05C114.699 44.8875 94.1117 24.3 68.9492 24.3ZM32.3492 70.05C32.3492 49.92 48.8192 33.45 68.9492 33.45C77.1842 33.45 84.9617 36.195 91.3667 41.2275L40.1267 92.4675C35.0942 86.0625 32.3492 78.285 32.3492 70.05ZM68.9492 106.65C60.7142 106.65 52.9367 103.905 46.5317 98.8725L97.7717 47.6325C102.804 54.0375 105.549 61.815 105.549 70.05C105.549 90.18 89.0792 106.65 68.9492 106.65Z" fill="#9E9E9E"/>
</mask>
<g mask="url(#mask0_2380_61077)">
<rect x="23" y="23" width="92" height="92" fill="#F7685B"/>
</g>
</svg>
