<svg width="33" height="32" viewBox="0 0 33 32" fill="none" xmlns="http://www.w3.org/2000/svg">
<rect x="1" y="0.5" width="31" height="31" rx="15.5" fill="#F4A9C6"/>
<rect x="1" y="0.5" width="31" height="31" rx="15.5" stroke="white"/>
<path d="M7.872 21V11.2H9.23L15.222 19.222L14.998 19.348C14.9327 18.9653 14.8767 18.522 14.83 18.018C14.7927 17.514 14.7647 16.9587 14.746 16.352C14.7273 15.7453 14.718 15.1013 14.718 14.42V11.2H16.23V21H14.844L8.95 13.272L9.104 13.076C9.16933 13.7853 9.22067 14.3687 9.258 14.826C9.29533 15.274 9.32333 15.6333 9.342 15.904C9.36067 16.1747 9.37 16.3893 9.37 16.548C9.37933 16.6973 9.384 16.8233 9.384 16.926V21H7.872ZM18.9736 21V11.2H25.1476V12.656H20.4856V19.544H25.1476V21H18.9736ZM19.6596 16.702V15.246H24.3776V16.702H19.6596Z" fill="#F3F5F8"/>
</svg>
