<svg width="221" height="180" viewBox="0 0 221 180" fill="none" xmlns="http://www.w3.org/2000/svg">
<circle cx="110.5" cy="80" r="80" fill="#C5CFDA"/>
<circle cx="26.5" cy="20" r="8" fill="#C5CFDA"/>
<circle cx="208.5" cy="126.667" r="6" fill="#C5CFDA"/>
<circle cx="16.5" cy="136.667" r="10" fill="#C5CFDA"/>
<circle cx="210.5" cy="38" r="10" fill="#C5CFDA"/>
<circle cx="191.5" cy="11" r="7" fill="#C5CFDA"/>
<g filter="url(#filter0_b_2829_300406)">
<rect x="82.5" y="88" width="56" height="56" rx="28" fill="#E4E7FF"/>
<g clip-path="url(#clip0_2829_300406)">
<path d="M115.167 120.667L110.5 116M110.5 116L105.833 120.667M110.5 116V126.5M120.288 123.455C121.426 122.835 122.325 121.853 122.843 120.665C123.361 119.477 123.469 118.15 123.149 116.895C122.83 115.639 122.101 114.525 121.078 113.729C120.055 112.933 118.796 112.501 117.5 112.5H116.03C115.677 111.134 115.019 109.866 114.105 108.791C113.191 107.716 112.046 106.863 110.754 106.294C109.463 105.726 108.06 105.457 106.65 105.509C105.24 105.561 103.861 105.932 102.615 106.594C101.369 107.256 100.289 108.192 99.4571 109.331C98.6249 110.47 98.0618 111.783 97.8102 113.171C97.5585 114.56 97.6248 115.987 98.0041 117.346C98.3834 118.704 99.0658 119.96 100 121.017" stroke="white" stroke-width="2.33333" stroke-linecap="round" stroke-linejoin="round"/>
</g>
</g>
<g clip-path="url(#clip1_2829_300406)">
<path d="M176.959 44.5469H48.2478C46.5114 44.5479 44.8463 45.2382 43.6184 46.4661C42.3906 47.694 41.7003 49.359 41.6992 51.0955V169.189C41.7003 170.926 42.3906 172.591 43.6184 173.819C44.8463 175.047 46.5114 175.737 48.2478 175.738H176.959C178.696 175.737 180.361 175.047 181.589 173.819C182.817 172.591 183.508 170.926 183.509 169.189V51.0955C183.508 49.3589 182.817 47.6938 181.589 46.4659C180.361 45.238 178.696 44.5478 176.959 44.5469Z" fill="#525DC1"/>
<path d="M168.486 134.701H56.7224C53.106 134.701 50.1738 131.769 50.1738 128.153V23.8103C50.1738 20.1938 53.106 17.2617 56.7224 17.2617H168.486C172.103 17.2617 175.035 20.1938 175.035 23.8103V128.153C175.035 131.769 172.103 134.701 168.486 134.701Z" fill="#E4E7FF"/>
<path d="M52.2471 130.225V25.8836C52.2471 22.2672 55.1793 19.335 58.7958 19.335H170.56C171.837 19.335 173.024 19.7063 174.031 20.3386C172.874 18.4925 170.826 17.2617 168.486 17.2617H56.7224C53.106 17.2617 50.1738 20.1939 50.1738 23.8103V128.153C50.1738 130.493 51.4046 132.54 53.2507 133.698C52.6184 132.691 52.2471 131.503 52.2471 130.226V130.225Z" fill="white"/>
<path d="M154.735 39.3076H70.4746V44.1095H154.735V39.3076ZM154.735 57.6429H70.4746V62.4448H154.735V57.6429ZM154.735 75.9822H70.4746V80.7842H154.735V75.9822ZM154.735 94.3175H70.4746V99.1201H154.735V94.3175Z" fill="white"/>
<path d="M80.5156 78.8184L101.689 99.9925H80.5156V78.8184Z" fill="#E4E7FF"/>
<path d="M183.509 101.739V53.0214L175.035 44.5469V101.738H183.509V101.739Z" fill="#E4E7FF"/>
<path d="M193.434 106.146L184.305 170.774C183.848 174.005 181.083 176.407 177.82 176.407H47.3878C44.125 176.407 41.3599 174.005 40.9034 170.774L28.5656 83.4454C28.0091 79.5029 31.0683 75.9805 35.05 75.9805H75.3302C78.593 75.9805 81.3582 78.3818 81.8146 81.6121L83.4315 93.0485C83.8879 96.2795 86.653 98.6808 89.9158 98.6808H186.951C190.932 98.6808 193.992 102.203 193.435 106.146H193.434Z" fill="#525DC1"/>
<path d="M161.087 147.58H64.1227C63.5912 147.579 63.078 147.385 62.6793 147.034C62.2806 146.683 62.0237 146.198 61.9567 145.671L60.7435 136.065C60.705 135.758 60.7322 135.446 60.8235 135.15C60.9147 134.854 61.0678 134.581 61.2726 134.349C61.4774 134.117 61.7293 133.931 62.0115 133.803C62.2937 133.676 62.5998 133.61 62.9095 133.609H162.3C162.609 133.61 162.915 133.676 163.198 133.803C163.48 133.931 163.732 134.117 163.937 134.349C164.141 134.581 164.295 134.854 164.386 135.15C164.477 135.446 164.504 135.758 164.466 136.065L163.253 145.671C163.186 146.198 162.929 146.683 162.53 147.034C162.131 147.385 161.618 147.579 161.087 147.58Z" fill="white"/>
</g>
<defs>
<filter id="filter0_b_2829_300406" x="74.5" y="80" width="72" height="72" filterUnits="userSpaceOnUse" color-interpolation-filters="sRGB">
<feFlood flood-opacity="0" result="BackgroundImageFix"/>
<feGaussianBlur in="BackgroundImageFix" stdDeviation="4"/>
<feComposite in2="SourceAlpha" operator="in" result="effect1_backgroundBlur_2829_300406"/>
<feBlend mode="normal" in="SourceGraphic" in2="effect1_backgroundBlur_2829_300406" result="shape"/>
</filter>
<clipPath id="clip0_2829_300406">
<rect width="28" height="28" fill="white" transform="translate(96.5 102)"/>
</clipPath>
<clipPath id="clip1_2829_300406">
<rect width="165" height="165" fill="white" transform="translate(28.5 14.334)"/>
</clipPath>
</defs>
</svg>
