<svg
    width="16"
    height="17"
    viewBox="0 0 16 17"
    fill="none"
    xmlns="http://www.w3.org/2000/svg"
>
    <path
        d="M5.84246 9.55915C5.68704 9.55915 5.55683 9.5066 5.45186 9.4015C5.34688 9.29641 5.29439 9.16618 5.29439 9.01082V4.23592L3.60009 5.93022C3.5012 6.03144 3.37759 6.08205 3.22926 6.08205C3.08092 6.08205 2.95005 6.02961 2.83664 5.92471C2.72322 5.81028 2.6665 5.67948 2.6665 5.53231C2.6665 5.38515 2.72322 5.25486 2.83664 5.14145L5.37311 2.60498C5.44153 2.53655 5.51402 2.48828 5.59057 2.46015C5.66712 2.43203 5.74914 2.41797 5.83663 2.41797C5.92411 2.41797 6.00722 2.43213 6.08595 2.46047C6.16469 2.48881 6.23781 2.53698 6.30529 2.60498L8.86004 5.15973C8.96877 5.26846 9.02244 5.39453 9.02104 5.53794C9.01963 5.68136 8.96221 5.81028 8.8488 5.92471C8.73539 6.02961 8.60698 6.08393 8.46357 6.08768C8.32015 6.09144 8.19174 6.0366 8.07831 5.92318L6.39105 4.23592V9.01786C6.39105 9.17122 6.33849 9.29978 6.23335 9.40353C6.1282 9.50728 5.9979 9.55915 5.84246 9.55915ZM9.99658 15.7513C9.90909 15.7513 9.82599 15.7371 9.74726 15.7088C9.66851 15.6805 9.5954 15.6323 9.52792 15.5643L6.97317 13.0095C6.86443 12.9008 6.81077 12.7748 6.81217 12.6313C6.81358 12.4879 6.871 12.359 6.98441 12.2446C7.09782 12.1397 7.22623 12.0853 7.36964 12.0816C7.51305 12.0778 7.64147 12.1327 7.7549 12.2461L9.44215 13.9334V9.15143C9.44215 8.99807 9.49472 8.8695 9.59986 8.76574C9.70501 8.66199 9.8353 8.61012 9.99074 8.61012C10.1462 8.61012 10.2764 8.66267 10.3814 8.76777C10.4863 8.87287 10.5388 9.0031 10.5388 9.15845V13.9334L12.2331 12.2391C12.332 12.1378 12.4556 12.0872 12.604 12.0872C12.7523 12.0872 12.8832 12.1397 12.9966 12.2446C13.11 12.359 13.1667 12.4898 13.1667 12.637C13.1667 12.7841 13.11 12.9144 12.9966 13.0278L10.4601 15.5643C10.3917 15.6327 10.3192 15.681 10.2426 15.7091C10.1661 15.7372 10.0841 15.7513 9.99658 15.7513Z"
        fill="black"
    />
</svg>