<svg width="341" height="168" viewBox="0 0 341 168" fill="none" xmlns="http://www.w3.org/2000/svg">
<rect width="341" height="168" fill="#F4F6FF"/>
<path d="M203.305 95.4327C198.834 106.125 188.238 113.675 175.925 113.675C166.723 113.675 158.46 109.463 153.049 102.853C149.744 104.019 144.916 105.639 144.657 105.737C145.499 104.991 146.374 104.246 147.249 103.566C149.323 101.913 151.461 100.39 153.632 98.9321C163.612 92.4193 174.921 88.2718 186.391 86.7813L182.956 69.0897C174.532 71.2282 166.431 74.5008 159.011 78.7455C154.604 81.2405 150.425 84.1243 146.472 87.3321C146.342 86.2304 146.277 85.1288 146.277 83.9947C146.277 67.6316 159.594 54.3466 175.958 54.3466C179.425 54.3466 182.73 54.9623 185.84 56.0316L194.718 42.7142C187.817 39.5712 179.975 38.0807 171.745 38.826C150.684 40.7701 133.543 57.3277 130.951 78.2919C130.076 85.2908 130.854 91.998 132.863 98.1221C133.284 99.3858 132.992 100.747 132.182 101.784C127.192 108.102 122.98 115.036 119.804 122.359L127.516 126.636C130.432 121.549 133.899 116.786 137.788 112.476C138.598 111.569 140.023 111.601 140.769 112.541C149.096 122.78 161.765 129.325 175.958 129.325C193.422 129.325 208.619 119.378 216.201 104.862L203.305 95.4327Z" fill="#C2C4E8"/>
<path d="M211.205 87.3773C217.207 84.8913 220.057 78.0107 217.571 72.0091C215.085 66.0075 208.204 63.1575 202.202 65.6435C196.201 68.1295 193.351 75.0101 195.837 81.0117C198.323 87.0134 205.203 89.8634 211.205 87.3773Z" fill="#C2C4E8"/>
</svg>
