<svg width="20" height="20" viewBox="0 0 20 20" fill="none" xmlns="http://www.w3.org/2000/svg">
<g clip-path="url(#clip0_4780_6890)">
<path d="M14.168 2.78357C15.4249 3.50928 16.4704 4.55067 17.2011 5.80465C17.9319 7.05863 18.3224 8.48171 18.3342 9.93302C18.3459 11.3843 17.9784 12.8135 17.268 14.0792C16.5576 15.3448 15.529 16.4029 14.284 17.1488C13.039 17.8948 11.6208 18.3026 10.1697 18.332C8.71866 18.3613 7.28509 18.0112 6.01093 17.3163C4.73677 16.6213 3.66619 15.6057 2.90519 14.3698C2.14419 13.134 1.71914 11.7208 1.67214 10.2702L1.66797 10.0002L1.67214 9.73024C1.7188 8.29106 2.13759 6.88854 2.88767 5.6594C3.63774 4.43026 4.69351 3.41645 5.95205 2.7168C7.21058 2.01716 8.62892 1.65557 10.0688 1.66727C11.5087 1.67897 12.921 2.06357 14.168 2.78357ZM10.0013 9.1669H9.16797L9.07047 9.17274C8.85956 9.19782 8.66618 9.3025 8.52986 9.46538C8.39353 9.62825 8.32454 9.83704 8.33699 10.0491C8.34944 10.2611 8.44238 10.4604 8.59683 10.6062C8.75128 10.752 8.95557 10.8333 9.16797 10.8336V13.3336L9.1738 13.4311C9.19768 13.6338 9.29513 13.8207 9.44766 13.9563C9.60019 14.0919 9.79719 14.1669 10.0013 14.1669H10.8346L10.9321 14.1611C11.1348 14.1372 11.3217 14.0397 11.4574 13.8872C11.593 13.7347 11.6679 13.5377 11.668 13.3336L11.6621 13.2361C11.6402 13.0501 11.5562 12.8769 11.4238 12.7444C11.2913 12.612 11.1181 12.528 10.9321 12.5061L10.8346 12.5002V10.0002L10.8288 9.90274C10.8049 9.70003 10.7075 9.51313 10.5549 9.3775C10.4024 9.24187 10.2054 9.16693 10.0013 9.1669ZM10.0096 5.83357L9.9038 5.8394C9.69289 5.86449 9.49951 5.96916 9.36319 6.13204C9.22686 6.29492 9.15788 6.50371 9.17033 6.71574C9.18277 6.92777 9.27572 7.12705 9.43016 7.27286C9.58461 7.41867 9.7889 7.5 10.0013 7.50024L10.1071 7.4944C10.318 7.46932 10.5114 7.36464 10.6477 7.20176C10.7841 7.03889 10.8531 6.8301 10.8406 6.61806C10.8282 6.40603 10.7352 6.20675 10.5808 6.06094C10.4263 5.91513 10.222 5.83381 10.0096 5.83357Z" fill="#A3A3A8"/>
</g>
<defs>
<clipPath id="clip0_4780_6890">
<rect width="20" height="20" fill="white"/>
</clipPath>
</defs>
</svg>
